<svg xmlns="http://www.w3.org/2000/svg" viewBox="0 0 16 16" width="16" height="16"><title>Icon Linkedin</title><path d="M.522 3.422c.335.335.802.503 1.36.503h.02c.597 0 1.063-.168 1.417-.503.354-.355.522-.765.522-1.287 0-.504-.187-.932-.523-1.268C2.982.53 2.516.363 1.94.363 1.36.363.894.53.54.867.187 1.203 0 1.63 0 2.135c0 .522.168.932.522 1.287zM.205 15.637h3.432V5.343H.205v10.294zm8.746 0V9.892c0-.354.04-.634.113-.84.15-.353.373-.65.672-.894.28-.242.652-.354 1.1-.354.596 0 1.025.205 1.305.615.28.41.43.988.43 1.715v5.502H16V9.743c0-1.53-.354-2.685-1.08-3.468-.73-.784-1.68-1.175-2.873-1.175-.43 0-.84.056-1.194.168a2.47 2.47 0 0 0-.913.447 4.1 4.1 0 0 0-.578.542c-.15.167-.3.353-.43.577h.02v-1.49H5.52l.018.502v3.077c0 1.715 0 3.954-.018 6.714h3.43z"></path></svg>
