<svg xmlns="http://www.w3.org/2000/svg" viewBox="0 0 16 16" width="16" height="16"><title>Icon Pinterest</title><path d="M6.894 10.582C6.474 12.785 5.96 14.897 4.44 16c-.47-3.33.688-5.83 1.226-8.484-.917-1.544.11-4.65 2.044-3.884 2.38.94-2.06 5.738.92 6.338 3.113.625 4.383-5.4 2.453-7.36-2.788-2.83-8.117-.066-7.46 3.986.16.99 1.182 1.29.408 2.658-1.784-.395-2.316-1.803-2.248-3.68C1.892 2.502 4.542.352 7.2.054c3.36-.377 6.514 1.234 6.95 4.395.49 3.568-1.517 7.433-5.11 7.155-.975-.076-1.383-.56-2.146-1.023z"></path></svg>
