<svg xmlns="http://www.w3.org/2000/svg" viewBox="0 0 16 16" width="16" height="16"><title>Icon Twitter</title><path d="M16 3.202a.275.275 0 0 0-.273-.273c-.085 0-.674.246-.828.29.204-.24.673-.966.673-1.273a.275.275 0 0 0-.273-.273.283.283 0 0 0-.136.042c-.58.316-1.135.564-1.784.7a3.498 3.498 0 0 0-2.406-.973 3.455 3.455 0 0 0-3.448 3.45c0 .136.01.28.035.418A8.736 8.736 0 0 1 2.5 3.11c-.34-.307-.63-.64-.938-.982a.268.268 0 0 0-.23-.102c-.095 0-.17.068-.214.136-.307.453-.47 1.187-.47 1.733 0 .794.274 1.57.786 2.186-.163-.052-.41-.214-.555-.214-.18 0-.334.128-.334.307 0 1.195.657 2.305 1.664 2.928-.077-.007-.145-.033-.222-.033a.272.272 0 0 0-.264.265c0 .034.008.06.017.094a3.44 3.44 0 0 0 2.493 2.296 6.07 6.07 0 0 1-3.2.905c-.256 0-.512-.042-.76-.042a.275.275 0 0 0-.273.273c0 .094.05.17.128.23.222.163.495.3.742.427a9.265 9.265 0 0 0 4.267 1.042c3.72 0 6.904-1.998 8.44-5.396.554-1.22.878-2.56.853-3.9v-.282c.58-.436 1.143-1 1.527-1.623A.295.295 0 0 0 16 3.202z"></path></svg>
