<svg xmlns="http://www.w3.org/2000/svg" viewBox="0 0 16 16" width="16" height="16"><title>Icon Whatsapp</title><path d="M8.132-.007c-4.268 0-7.73 3.49-7.73 7.794 0 1.472.406 2.85 1.11 4.024L.117 15.994l4.28-1.382c1.107.618 2.38.97 3.735.97 4.27 0 7.73-3.49 7.73-7.793 0-4.305-3.46-7.794-7.73-7.794zm0 14.346c-1.32 0-2.55-.4-3.575-1.085l-2.497.807.812-2.434a6.554 6.554 0 0 1-1.238-3.842c0-3.613 2.915-6.552 6.498-6.552s6.498 2.94 6.498 6.552c0 3.613-2.915 6.553-6.498 6.553z"></path><path d="M6.365 4.525c-.125-.304-.22-.314-.414-.324a4.407 4.407 0 0 0-.216-.005c-.25 0-.508.074-.663.235-.19.195-.662.653-.662 1.593S5.088 7.87 5.18 8c.096.126 1.325 2.084 3.238 2.883 1.493.623 1.936.568 2.276.493.496-.11 1.118-.478 1.276-.924.158-.446.158-.828.11-.908-.047-.08-.173-.127-.363-.223-.19-.094-1.12-.556-1.294-.62-.174-.064-.335-.044-.468.142-.184.257-.362.522-.51.678-.114.124-.3.14-.46.072-.208-.09-.8-.297-1.522-.948A5.747 5.747 0 0 1 6.41 7.32c-.112-.19-.01-.304.074-.408.097-.12.187-.204.282-.315.094-.112.147-.17.21-.3.063-.126.02-.258-.026-.353-.048-.096-.427-1.036-.585-1.42z"></path></svg>
